PathFileType	4	(X/Y/Z)	C:/Users/opensim2020/Desktop/walking_exp_matlab/subject02_walking15_straight_02.trc	
DataRate	CameraRate	NumFrames	NumMarkers	Units	OrigDataRate	OrigDataStartFrame	OrigNumFrames	
100.00	100.00	5	42	mm	100.00	976	142	
Frame#	Time	LFHD			RFHD			LBHD			RBHD			C7			T10			CLAV			STRN			RBAK			LSHO			LUPA			LELB			LFRM			LWRA			LWRB			LFIN			RSHO			RUPA			RELB			RFRM			RWRA			RWRB			RFIN			LASI			RASI			LPSI			RPSI			LTHI			LKNE			LTIB			LANK			LHEE			LTOE			RTHI			RKNE			RTIB			RANK			RHEE			RTOE			*39			*40			*41			
		X1	Y1	Z1	X2	Y2	Z2	X3	Y3	Z3	X4	Y4	Z4	X5	Y5	Z5	X6	Y6	Z6	X7	Y7	Z7	X8	Y8	Z8	X9	Y9	Z9	X10	Y10	Z10	X11	Y11	Z11	X12	Y12	Z12	X13	Y13	Z13	X14	Y14	Z14	X15	Y15	Z15	X16	Y16	Z16	X17	Y17	Z17	X18	Y18	Z18	X19	Y19	Z19	X20	Y20	Z20	X21	Y21	Z21	X22	Y22	Z22	X23	Y23	Z23	X24	Y24	Z24	X25	Y25	Z25	X26	Y26	Z26	X27	Y27	Z27	X28	Y28	Z28	X29	Y29	Z29	X30	Y30	Z30	X31	Y31	Z31	X32	Y32	Z32	X33	Y33	Z33	X34	Y34	Z34	X35	Y35	Z35	X36	Y36	Z36	X37	Y37	Z37	X38	Y38	Z38	X39	Y39	Z39	X40	Y40	Z40	X41	Y41	Z41	X42	Y42	Z42	

107	1.060	-992.17236	-486.11456	1710.76074	-1135.29541	-485.35236	1698.06262	-987.55713	-354.21155	1637.70081	-1129.43201	-341.49341	1623.56653	-1054.18384	-297.53528	1494.75928	-1073.84265	-262.20557	1216.23767	-1051.03003	-443.65689	1436.94739	-1067.63635	-506.91458	1270.61963	-1119.86243	-247.59441	1317.44556	-879.11267	-377.75458	1470.94263	-784.95422	-399.67072	1281.09485	-754.23132	-438.23346	1145.47656	-769.66071	-543.55005	1060.21521	-833.19537	-660.48987	1029.03760	-796.44800	-641.08197	991.18799	-804.60925	-704.18872	975.01538	-1243.02722	-365.07416	1471.14746	-1334.11462	-309.24789	1292.48462	-1363.24951	-300.94553	1151.86243	-1400.33496	-295.57999	1037.93164	-1403.23254	-304.96271	899.72046	-1431.66577	-258.63467	917.35126	-1443.57556	-268.91309	845.13239	-963.47552	-503.92566	950.50098	-1208.55688	-522.03979	972.59601	-1043.84338	-297.60074	997.34589	-1161.61841	-300.60669	1009.19379	-897.94434	-405.49966	642.07751	-907.49445	-362.68643	459.74301	-909.12225	-202.61862	365.89172	-944.77063	-45.73032	214.55513	-1004.15479	-17.11004	221.17406	-922.25696	-87.94527	63.11695	-1291.60132	-520.61920	673.88110	-1250.25098	-562.37738	467.37241	-1264.95020	-534.83185	280.42014	-1235.14331	-520.53589	89.15215	-1186.48669	-479.55072	37.06330	-1233.08984	-674.39899	35.23519	-1078.52991	-384.45010	1780.62988						 
108	1.070	-993.28625	-499.47366	1712.81653	-1136.20996	-499.28342	1699.99377	-988.36072	-368.04617	1640.45886	-1130.44067	-355.26547	1625.74414	-1055.37476	-311.07394	1497.76917	-1075.10095	-275.41776	1218.71790	-1051.21533	-456.78415	1439.25537	-1067.65259	-520.12701	1272.83240	-1121.00171	-261.40689	1320.14758	-879.49530	-390.10400	1473.00549	-785.72791	-409.89838	1282.62561	-755.29279	-446.03430	1146.22498	-769.12170	-548.69452	1057.70264	-830.88196	-665.80707	1022.20581	-794.39075	-644.94495	985.42853	-801.44226	-706.96161	966.49554	-1243.84741	-379.96262	1473.70691	-1334.94678	-325.94647	1294.24585	-1364.64185	-319.25195	1153.54797	-1401.97485	-315.92294	1039.55225	-1404.75989	-327.62195	901.64453	-1433.37402	-281.20712	918.37115	-1445.64612	-293.30264	846.57660	-963.78461	-516.46259	952.61182	-1209.65198	-534.82483	974.84668	-1045.43237	-310.12155	999.96295	-1162.70044	-312.98044	1011.68604	-899.46973	-427.52692	643.54156	-909.35968	-390.62894	460.61795	-912.63068	-229.85176	368.85455	-948.30243	-72.72719	217.93407	-1007.90839	-43.39779	222.97794	-920.72101	-117.50406	68.37969	-1291.83923	-529.96356	674.60529	-1250.74158	-567.24139	467.54224	-1265.92590	-537.73810	280.82193	-1235.05334	-520.92523	89.28755	-1186.45374	-479.51953	37.09378	-1233.15918	-674.64471	35.10406	-1080.09705	-398.49640	1783.07031						 
109	1.080	-993.71606	-513.03534	1715.49341	-1136.88782	-513.14172	1701.94348	-989.35852	-381.98389	1642.69849	-1131.04639	-369.12891	1628.01575	-1056.21021	-324.69781	1500.58569	-1076.20728	-288.38199	1221.36865	-1051.08643	-470.64200	1441.84631	-1067.54016	-532.92444	1274.97144	-1122.84497	-274.86984	1323.19983	-879.79413	-402.10300	1475.22046	-786.59326	-419.11063	1284.38232	-756.40155	-453.59988	1147.14246	-768.50018	-553.70770	1054.95898	-828.35132	-670.66266	1015.27313	-792.15210	-646.83636	979.15302	-798.20172	-708.62006	957.80994	-1244.46448	-395.06491	1476.39478	-1336.65613	-342.81720	1296.55042	-1366.17737	-337.77802	1155.44507	-1403.32092	-336.65463	1041.32642	-1406.02808	-351.00793	903.80042	-1434.87244	-304.34747	919.48651	-1447.41711	-318.48303	848.21338	-963.37280	-528.75684	955.35077	-1210.29932	-547.46686	976.85883	-1046.98450	-322.42307	1002.91144	-1163.80896	-325.12885	1014.45844	-901.08313	-449.20572	645.27545	-911.72076	-418.20691	462.92642	-916.81396	-257.54932	371.51215	-951.62054	-100.76822	219.69659	-1011.72876	-71.25043	222.97324	-919.22382	-148.32440	72.93072	-1291.83777	-538.84955	675.35779	-1251.19067	-572.01270	467.48843	-1266.78003	-540.68909	281.13593	-1235.08557	-521.33820	89.35541	-1186.46313	-479.46655	37.16349	-1233.19568	-674.43158	35.13044	-1081.27478	-412.50458	1785.30725						 
110	1.090	-994.46936	-526.98981	1718.29834	-1137.33691	-527.07092	1704.00208	-989.87079	-395.76120	1645.74695	-1131.56262	-383.02023	1630.52295	-1057.20703	-338.23569	1503.57361	-1077.21375	-301.29886	1224.15747	-1051.10168	-483.08844	1443.99011	-1067.37720	-546.03088	1277.29980	-1125.08008	-288.21564	1326.61792	-880.02972	-414.26883	1477.52942	-787.29828	-428.30688	1285.89990	-757.53107	-460.95508	1148.28979	-767.70111	-558.39447	1052.72363	-825.43573	-674.40906	1008.07397	-789.43549	-648.60052	973.23938	-794.82477	-709.28650	948.76794	-1244.94604	-410.11478	1479.34412	-1337.73132	-359.89584	1298.73633	-1367.75012	-356.54587	1157.47595	-1404.54932	-357.83954	1043.34290	-1407.09509	-374.89456	906.42242	-1436.14929	-328.07291	920.72449	-1448.87878	-344.36465	850.04297	-962.09198	-540.52911	958.74091	-1210.70691	-559.78973	978.75677	-1048.58362	-334.47012	1006.01910	-1164.89038	-337.32901	1017.35504	-902.71692	-470.76996	647.38239	-914.32727	-445.34409	465.99341	-921.03546	-285.28693	373.94177	-955.05841	-129.55563	220.32130	-1015.65900	-99.90995	221.64139	-918.59943	-180.02708	76.10117	-1292.07434	-546.96558	675.58209	-1251.61267	-576.24695	467.38806	-1267.52271	-543.35022	281.24146	-1235.17883	-521.62830	89.52641	-1186.50342	-479.36636	37.35133	-1233.33594	-674.39508	35.14631	-1082.16663	-426.60889	1787.76965						 
111	1.100	-994.95581	-540.94495	1720.34546	-1137.82214	-541.17102	1706.27979	-990.12683	-408.95172	1648.66565	-1131.99744	-396.77185	1633.11499	-1057.96655	-351.75977	1506.40601	-1078.21985	-314.08902	1227.03894	-1050.91919	-496.18985	1446.33704	-1067.04224	-558.88153	1279.57544	-1127.15930	-301.51669	1330.17651	-880.21265	-426.48117	1479.85193	-787.86688	-437.99432	1287.79956	-758.48755	-467.81100	1149.21985	-766.58020	-561.39203	1050.22253	-822.48700	-677.16809	1000.53754	-786.77753	-649.28601	967.08356	-791.38745	-708.84448	939.71783	-1245.27466	-425.18005	1482.26648	-1338.49939	-377.16779	1300.86353	-1369.10571	-375.56531	1159.64282	-1405.65051	-379.36209	1045.37183	-1407.83887	-399.29367	908.99481	-1437.19080	-352.27075	922.07062	-1450.00854	-370.79193	852.25970	-960.52863	-551.97864	962.35388	-1210.84009	-571.85278	980.53973	-1050.15942	-346.40683	1009.10828	-1165.94519	-349.64087	1020.20923	-904.23779	-491.81570	649.97491	-916.91742	-471.83334	469.20917	-925.28668	-312.81659	376.28030	-958.46552	-159.09911	219.56326	-1019.37067	-129.26997	218.93349	-918.74884	-213.41945	78.15929	-1292.26746	-554.41809	675.87769	-1252.00830	-579.90210	467.20474	-1267.90442	-545.55621	281.24622	-1235.24585	-521.90436	89.69296	-1186.19836	-479.55740	37.49008	-1233.50476	-674.48938	35.25536	-1082.91357	-440.63712	1790.40186						 
